<svg id="SvgjsSvg1000" xmlns="http://www.w3.org/2000/svg" version="1.1" xmlns:xlink="http://www.w3.org/1999/xlink" xmlns:svgjs="http://svgjs.com/svgjs" width="1058.5" height="630"><defs id="SvgjsDefs1001"><marker id="SvgjsMarker1089" markerWidth="16" markerHeight="12" refX="16" refY="6" viewBox="0 0 16 12" orient="auto" markerUnits="userSpaceOnUse"><path id="SvgjsPath1090" d="M0 2L14 6L0 11L0 2 " fill="#323232" stroke="#323232" stroke-width="2"></path></marker><marker id="SvgjsMarker1253" markerWidth="16" markerHeight="12" refX="16" refY="6" viewBox="0 0 16 12" orient="auto" markerUnits="userSpaceOnUse"><path id="SvgjsPath1254" d="M0 2L14 6L0 11L0 2 " fill="#323232" stroke="#323232" stroke-width="2"></path></marker></defs><g id="SvgjsG1007" transform="translate(25,25)"><path id="SvgjsPath1008" d="M0 0L208 0L208 291L0 291Z " stroke="rgba(50,50,50,1)" stroke-width="2" fill-opacity="1" fill="#ffffff"></path><g id="SvgjsG1009"><text id="SvgjsText1010" font-family="微软雅黑" text-anchor="middle" font-size="13px" width="0" fill="#323232" font-weight="400" align="middle" font-style="" opacity="1" y="135.55" transform="rotate(0)"></text></g></g><g id="SvgjsG1011" transform="translate(49,53.5)"><path id="SvgjsPath1012" d="M0 0L208 0L208 291L0 291Z " stroke="rgba(50,50,50,1)" stroke-width="2" fill-opacity="1" fill="#ffffff"></path><g id="SvgjsG1013"><text id="SvgjsText1014" font-family="微软雅黑" text-anchor="middle" font-size="13px" width="0" fill="#323232" font-weight="400" align="middle" font-style="" opacity="1" y="135.55" transform="rotate(0)"></text></g></g><g id="SvgjsG1015" transform="translate(76,77.5)"><path id="SvgjsPath1016" d="M0 0L208 0L208 291L0 291Z " stroke="rgba(50,50,50,1)" stroke-width="2" fill-opacity="1" fill="#ffff99"></path><g id="SvgjsG1017"><text id="SvgjsText1018" font-family="微软雅黑" text-anchor="middle" font-size="13px" width="0" fill="#323232" font-weight="400" align="middle" font-style="" opacity="1" y="135.55" transform="rotate(0)"></text></g></g><g id="SvgjsG1019" transform="translate(29,82)"><path id="SvgjsPath1020" d="M0 0L160 0L160 40L0 40Z " stroke="none" fill="none"></path><g id="SvgjsG1021"><text id="SvgjsText1022" font-family="微软雅黑" text-anchor="middle" font-size="15px" width="53" fill="#323232" font-weight="700" align="middle" font-style="" opacity="1" y="8.25" transform="rotate(0)"><tspan id="SvgjsTspan1023" dy="18" x="80.5"><tspan id="SvgjsTspan1024" style="text-decoration:;">Thread</tspan></tspan></text></g></g><g id="SvgjsG1025" transform="translate(91,115)"><path id="SvgjsPath1026" d="M0 0L178 0L178 34L0 34Z " stroke="rgba(50,50,50,1)" stroke-width="2" fill-opacity="1" fill="#ffffff"></path><g id="SvgjsG1027"><text id="SvgjsText1028" font-family="微软雅黑" text-anchor="middle" font-size="13px" width="75" fill="#323232" font-weight="700" align="middle" font-style="" opacity="1" y="7.05" transform="rotate(0)"><tspan id="SvgjsTspan1029" dy="16" x="89.5"><tspan id="SvgjsTspan1030" style="text-decoration:;">PC Register</tspan></tspan></text></g></g><g id="SvgjsG1031" transform="translate(91,168)"><path id="SvgjsPath1032" d="M0 0L78 0L78 182L0 182Z " stroke="rgba(50,50,50,1)" stroke-width="2" fill-opacity="1" fill="#ffffff"></path><g id="SvgjsG1033"><text id="SvgjsText1034" font-family="微软雅黑" text-anchor="middle" font-size="13px" width="0" fill="#323232" font-weight="400" align="middle" font-style="" opacity="1" y="81.05" transform="rotate(0)"></text></g></g><g id="SvgjsG1035" transform="translate(91,327)"><path id="SvgjsPath1036" d="M0 0L78 0L78 23L0 23Z " stroke="rgba(50,50,50,1)" stroke-width="2" fill-opacity="1" fill="#ffffff"></path><g id="SvgjsG1037"><text id="SvgjsText1038" font-family="微软雅黑" text-anchor="middle" font-size="13px" width="0" fill="#323232" font-weight="400" align="middle" font-style="" opacity="1" y="1.55" transform="rotate(0)"></text></g></g><g id="SvgjsG1039" transform="translate(91,281)"><path id="SvgjsPath1040" d="M0 0L78 0L78 23L0 23Z " stroke="rgba(50,50,50,1)" stroke-width="2" fill-opacity="1" fill="#ffffff"></path><g id="SvgjsG1041"><text id="SvgjsText1042" font-family="微软雅黑" text-anchor="middle" font-size="13px" width="0" fill="#323232" font-weight="400" align="middle" font-style="" opacity="1" y="1.55" transform="rotate(0)"></text></g></g><g id="SvgjsG1043" transform="translate(91,304)"><path id="SvgjsPath1044" d="M0 0L78 0L78 23L0 23Z " stroke="rgba(50,50,50,1)" stroke-width="2" fill-opacity="1" fill="#ffffff"></path><g id="SvgjsG1045"><text id="SvgjsText1046" font-family="微软雅黑" text-anchor="middle" font-size="13px" width="0" fill="#323232" font-weight="400" align="middle" font-style="" opacity="1" y="1.55" transform="rotate(0)"></text></g></g><g id="SvgjsG1047" transform="translate(191,168)"><path id="SvgjsPath1048" d="M0 0L78 0L78 182L0 182Z " stroke="rgba(50,50,50,1)" stroke-width="2" fill-opacity="1" fill="#ffffff"></path><g id="SvgjsG1049"><text id="SvgjsText1050" font-family="微软雅黑" text-anchor="middle" font-size="13px" width="0" fill="#323232" font-weight="400" align="middle" font-style="" opacity="1" y="81.05" transform="rotate(0)"></text></g></g><g id="SvgjsG1051" transform="translate(191,327)"><path id="SvgjsPath1052" d="M0 0L78 0L78 23L0 23Z " stroke="rgba(50,50,50,1)" stroke-width="2" fill-opacity="1" fill="#3333ff"></path><g id="SvgjsG1053"><text id="SvgjsText1054" font-family="微软雅黑" text-anchor="middle" font-size="13px" width="0" fill="#323232" font-weight="400" align="middle" font-style="" opacity="1" y="1.55" transform="rotate(0)"></text></g></g><g id="SvgjsG1055" transform="translate(191,281)"><path id="SvgjsPath1056" d="M0 0L78 0L78 23L0 23Z " stroke="rgba(50,50,50,1)" stroke-width="2" fill-opacity="1" fill="#ffffff"></path><g id="SvgjsG1057"><text id="SvgjsText1058" font-family="微软雅黑" text-anchor="middle" font-size="13px" width="0" fill="#323232" font-weight="400" align="middle" font-style="" opacity="1" y="1.55" transform="rotate(0)"></text></g></g><g id="SvgjsG1059" transform="translate(191,304)"><path id="SvgjsPath1060" d="M0 0L78 0L78 23L0 23Z " stroke="rgba(50,50,50,1)" stroke-width="2" fill-opacity="1" fill="#ffffff"></path><g id="SvgjsG1061"><text id="SvgjsText1062" font-family="微软雅黑" text-anchor="middle" font-size="13px" width="0" fill="#323232" font-weight="400" align="middle" font-style="" opacity="1" y="1.55" transform="rotate(0)"></text></g></g><g id="SvgjsG1063" transform="translate(96.5,185)"><path id="SvgjsPath1064" d="M0 0L67 0L67 50L0 50Z " stroke="none" fill="none"></path><g id="SvgjsG1065"><text id="SvgjsText1066" font-family="微软雅黑" text-anchor="middle" font-size="15px" width="50" fill="#323232" font-weight="700" align="middle" font-style="" opacity="1" y="3.75" transform="rotate(0)"><tspan id="SvgjsTspan1067" dy="18" x="34"><tspan id="SvgjsTspan1068" style="text-decoration:;">Native</tspan></tspan><tspan id="SvgjsTspan1069" dy="18" x="34"><tspan id="SvgjsTspan1070" style="text-decoration:;"> Stack</tspan></tspan></text></g></g><g id="SvgjsG1071" transform="translate(193,185)"><path id="SvgjsPath1072" d="M0 0L74 0L74 50L0 50Z " stroke="none" fill="none"></path><g id="SvgjsG1073"><text id="SvgjsText1074" font-family="微软雅黑" text-anchor="middle" font-size="15px" width="41" fill="#323232" font-weight="700" align="middle" font-style="" opacity="1" y="13.25" transform="rotate(0)"><tspan id="SvgjsTspan1075" dy="18" x="37.5"><tspan id="SvgjsTspan1076" style="text-decoration:;">Stack</tspan></tspan></text></g></g><g id="SvgjsG1077" transform="translate(25,434)"><path id="SvgjsPath1078" d="M0 0L476 0L476 171L0 171Z " stroke="rgba(50,50,50,1)" stroke-width="2" fill-opacity="1" fill="#99ccff"></path><g id="SvgjsG1079"><text id="SvgjsText1080" font-family="微软雅黑" text-anchor="middle" font-size="13px" width="0" fill="#323232" font-weight="400" align="middle" font-style="" opacity="1" y="75.55" transform="rotate(0)"></text></g></g><g id="SvgjsG1081" transform="translate(29,447)"><path id="SvgjsPath1082" d="M0 0L126.5 0L126.5 35L0 35Z " stroke="none" fill="none"></path><g id="SvgjsG1083"><text id="SvgjsText1084" font-family="微软雅黑" text-anchor="middle" font-size="15px" width="92" fill="#323232" font-weight="700" align="middle" font-style="" opacity="1" y="5.75" transform="rotate(0)"><tspan id="SvgjsTspan1085" dy="18" x="64"><tspan id="SvgjsTspan1086" style="text-decoration:;">Stack Frame</tspan></tspan></text></g></g><g id="SvgjsG1087"><path id="SvgjsPath1088" d="M230 350L230 394L230 394L230 438 " stroke="#323232" stroke-width="2" fill="none" marker-end="url(#SvgjsMarker1089)"></path></g><g id="SvgjsG1091" transform="translate(42.25,502)"><path id="SvgjsPath1092" d="M0 0L70.75 0L70.75 62L0 62Z " stroke="rgba(50,50,50,1)" stroke-width="2" fill-opacity="1" fill="#ffffff"></path><g id="SvgjsG1093"><text id="SvgjsText1094" font-family="微软雅黑" text-anchor="middle" font-size="13px" width="45" fill="#323232" font-weight="700" align="middle" font-style="" opacity="1" y="13.05" transform="rotate(0)"><tspan id="SvgjsTspan1095" dy="16" x="36"><tspan id="SvgjsTspan1096" style="text-decoration:;">Return </tspan></tspan><tspan id="SvgjsTspan1097" dy="16" x="36"><tspan id="SvgjsTspan1098" style="text-decoration:;">Value</tspan></tspan></text></g></g><g id="SvgjsG1099" transform="translate(133,502)"><path id="SvgjsPath1100" d="M0 0L135 0L135 62L0 62Z " stroke="rgba(50,50,50,1)" stroke-width="2" fill-opacity="1" fill="#ffffff"></path><g id="SvgjsG1101"><text id="SvgjsText1102" font-family="微软雅黑" text-anchor="middle" font-size="13px" width="0" fill="#323232" font-weight="400" align="middle" font-style="" opacity="1" y="21.05" transform="rotate(0)"></text></g></g><g id="SvgjsG1103" transform="translate(133,502)"><path id="SvgjsPath1104" d="M0 0L22.5 0L22.5 62L0 62Z " stroke="rgba(50,50,50,1)" stroke-width="2" fill-opacity="1" fill="#ffffff"></path><g id="SvgjsG1105"><text id="SvgjsText1106" font-family="微软雅黑" text-anchor="middle" font-size="13px" width="0" fill="#323232" font-weight="400" align="middle" font-style="" opacity="1" y="21.05" transform="rotate(0)"></text></g></g><g id="SvgjsG1107" transform="translate(223,502)"><path id="SvgjsPath1108" d="M0 0L22.5 0L22.5 62L0 62Z " stroke="rgba(50,50,50,1)" stroke-width="2" fill-opacity="1" fill="#ffffff"></path><g id="SvgjsG1109"><text id="SvgjsText1110" font-family="微软雅黑" text-anchor="middle" font-size="13px" width="0" fill="#323232" font-weight="400" align="middle" font-style="" opacity="1" y="21.05" transform="rotate(0)"></text></g></g><g id="SvgjsG1111" transform="translate(200.5,502)"><path id="SvgjsPath1112" d="M0 0L22.5 0L22.5 62L0 62Z " stroke="rgba(50,50,50,1)" stroke-width="2" fill-opacity="1" fill="#ffffff"></path><g id="SvgjsG1113"><text id="SvgjsText1114" font-family="微软雅黑" text-anchor="middle" font-size="13px" width="0" fill="#323232" font-weight="400" align="middle" font-style="" opacity="1" y="21.05" transform="rotate(0)"></text></g></g><g id="SvgjsG1115" transform="translate(178,502)"><path id="SvgjsPath1116" d="M0 0L22.5 0L22.5 62L0 62Z " stroke="rgba(50,50,50,1)" stroke-width="2" fill-opacity="1" fill="#ffffff"></path><g id="SvgjsG1117"><text id="SvgjsText1118" font-family="微软雅黑" text-anchor="middle" font-size="13px" width="0" fill="#323232" font-weight="400" align="middle" font-style="" opacity="1" y="21.05" transform="rotate(0)"></text></g></g><g id="SvgjsG1119" transform="translate(155.5,502)"><path id="SvgjsPath1120" d="M0 0L22.5 0L22.5 62L0 62Z " stroke="rgba(50,50,50,1)" stroke-width="2" fill-opacity="1" fill="#ffffff"></path><g id="SvgjsG1121"><text id="SvgjsText1122" font-family="微软雅黑" text-anchor="middle" font-size="13px" width="0" fill="#323232" font-weight="400" align="middle" font-style="" opacity="1" y="21.05" transform="rotate(0)"></text></g></g><g id="SvgjsG1123" transform="translate(245.5,502)"><path id="SvgjsPath1124" d="M0 0L22.5 0L22.5 62L0 62Z " stroke="rgba(50,50,50,1)" stroke-width="2" fill-opacity="1" fill="#ffffff"></path><g id="SvgjsG1125"><text id="SvgjsText1126" font-family="微软雅黑" text-anchor="middle" font-size="13px" width="0" fill="#323232" font-weight="400" align="middle" font-style="" opacity="1" y="21.05" transform="rotate(0)"></text></g></g><g id="SvgjsG1127" transform="translate(120.5,462)"><path id="SvgjsPath1128" d="M0 0L160 0L160 40L0 40Z " stroke="none" fill="none"></path><g id="SvgjsG1129"><text id="SvgjsText1130" font-family="微软雅黑" text-anchor="middle" font-size="14px" width="110" fill="#323232" font-weight="700" align="middle" font-style="" opacity="1" y="8.9" transform="rotate(0)"><tspan id="SvgjsTspan1131" dy="17" x="80.5"><tspan id="SvgjsTspan1132" style="text-decoration:;">Local Varuables</tspan></tspan></text></g></g><g id="SvgjsG1133" transform="translate(281.5,475.5)"><path id="SvgjsPath1134" d="M0 0L78 0L78 115L0 115Z " stroke="rgba(50,50,50,1)" stroke-width="2" fill-opacity="1" fill="#ffffff"></path><g id="SvgjsG1135"><text id="SvgjsText1136" font-family="微软雅黑" text-anchor="middle" font-size="13px" width="0" fill="#323232" font-weight="400" align="middle" font-style="" opacity="1" y="47.55" transform="rotate(0)"></text></g></g><g id="SvgjsG1137" transform="translate(280.5,567.5)"><path id="SvgjsPath1138" d="M0 0L78 0L78 23L0 23Z " stroke="rgba(50,50,50,1)" stroke-width="2" fill-opacity="1" fill="#ffffff"></path><g id="SvgjsG1139"><text id="SvgjsText1140" font-family="微软雅黑" text-anchor="middle" font-size="13px" width="0" fill="#323232" font-weight="400" align="middle" font-style="" opacity="1" y="1.55" transform="rotate(0)"></text></g></g><g id="SvgjsG1141" transform="translate(281.5,521.5)"><path id="SvgjsPath1142" d="M0 0L78 0L78 23L0 23Z " stroke="rgba(50,50,50,1)" stroke-width="2" fill-opacity="1" fill="#ffffff"></path><g id="SvgjsG1143"><text id="SvgjsText1144" font-family="微软雅黑" text-anchor="middle" font-size="13px" width="0" fill="#323232" font-weight="400" align="middle" font-style="" opacity="1" y="1.55" transform="rotate(0)"></text></g></g><g id="SvgjsG1145" transform="translate(281.5,544.5)"><path id="SvgjsPath1146" d="M0 0L78 0L78 23L0 23Z " stroke="rgba(50,50,50,1)" stroke-width="2" fill-opacity="1" fill="#ffffff"></path><g id="SvgjsG1147"><text id="SvgjsText1148" font-family="微软雅黑" text-anchor="middle" font-size="13px" width="0" fill="#323232" font-weight="400" align="middle" font-style="" opacity="1" y="1.55" transform="rotate(0)"></text></g></g><g id="SvgjsG1149" transform="translate(281.5,498.5)"><path id="SvgjsPath1150" d="M0 0L78 0L78 23L0 23Z " stroke="rgba(50,50,50,1)" stroke-width="2" fill-opacity="1" fill="#ffffff"></path><g id="SvgjsG1151"><text id="SvgjsText1152" font-family="微软雅黑" text-anchor="middle" font-size="13px" width="0" fill="#323232" font-weight="400" align="middle" font-style="" opacity="1" y="1.55" transform="rotate(0)"></text></g></g><g id="SvgjsG1153" transform="translate(285,439)"><path id="SvgjsPath1154" d="M0 0L71 0L71 36.5L0 36.5Z " stroke="none" fill="none"></path><g id="SvgjsG1155"><text id="SvgjsText1156" font-family="微软雅黑" text-anchor="middle" font-size="13px" width="61" fill="#323232" font-weight="700" align="middle" font-style="" opacity="1" y="0.30000000000000004" transform="rotate(0)"><tspan id="SvgjsTspan1157" dy="16" x="36"><tspan id="SvgjsTspan1158" style="text-decoration:;">Operand </tspan></tspan><tspan id="SvgjsTspan1159" dy="16" x="36"><tspan id="SvgjsTspan1160" style="text-decoration:;">Stack</tspan></tspan></text></g></g><g id="SvgjsG1161" transform="translate(377,451.5)"><path id="SvgjsPath1162" d="M0 0L103 0L103 139L0 139Z " stroke="rgba(50,50,50,1)" stroke-width="2" fill-opacity="1" fill="#ff8000"></path><g id="SvgjsG1163"><text id="SvgjsText1164" font-family="微软雅黑" text-anchor="middle" font-size="13px" width="66" fill="#323232" font-weight="700" align="middle" font-style="" opacity="1" y="27.55" transform="rotate(0)"><tspan id="SvgjsTspan1165" dy="16" x="52"><tspan id="SvgjsTspan1166" style="text-decoration:;">Current </tspan></tspan><tspan id="SvgjsTspan1167" dy="16" x="52"><tspan id="SvgjsTspan1168" style="text-decoration:;">Class </tspan></tspan><tspan id="SvgjsTspan1169" dy="16" x="52"><tspan id="SvgjsTspan1170" style="text-decoration:;">Constant </tspan></tspan><tspan id="SvgjsTspan1171" dy="16" x="52"><tspan id="SvgjsTspan1172" style="text-decoration:;">Pool</tspan></tspan><tspan id="SvgjsTspan1173" dy="16" x="52"><tspan id="SvgjsTspan1174" style="text-decoration:;">Reference</tspan></tspan></text></g></g><g id="SvgjsG1175" transform="translate(572.5,124)"><path id="SvgjsPath1176" d="M0 0L215 0L215 481L0 481Z " stroke="rgba(50,50,50,1)" stroke-width="2" fill-opacity="1" fill="#ffffff"></path><g id="SvgjsG1177"><text id="SvgjsText1178" font-family="微软雅黑" text-anchor="middle" font-size="13px" width="0" fill="#323232" font-weight="400" align="middle" font-style="" opacity="1" y="230.55" transform="rotate(0)"></text></g></g><g id="SvgjsG1179" transform="translate(610.5,155.5)"><path id="SvgjsPath1180" d="M0 0L139 0L139 37L0 37Z " stroke="rgba(50,50,50,1)" stroke-width="2" fill-opacity="1" fill="#ffffff"></path><g id="SvgjsG1181"><text id="SvgjsText1182" font-family="微软雅黑" text-anchor="middle" font-size="15px" width="60" fill="#323232" font-weight="700" align="middle" font-style="" opacity="1" y="6.75" transform="rotate(0)"><tspan id="SvgjsTspan1183" dy="18" x="70"><tspan id="SvgjsTspan1184" style="text-decoration:;">类型信息</tspan></tspan></text></g></g><g id="SvgjsG1185" transform="translate(610.5,210)"><path id="SvgjsPath1186" d="M0 0L139 0L139 37L0 37Z " stroke="rgba(50,50,50,1)" stroke-width="2" fill-opacity="1" fill="#ffffff"></path><g id="SvgjsG1187"><text id="SvgjsText1188" font-family="微软雅黑" text-anchor="middle" font-size="15px" width="45" fill="#323232" font-weight="700" align="middle" font-style="" opacity="1" y="6.75" transform="rotate(0)"><tspan id="SvgjsTspan1189" dy="18" x="70"><tspan id="SvgjsTspan1190" style="text-decoration:;">域信息</tspan></tspan></text></g></g><g id="SvgjsG1191" transform="translate(610.5,264.5)"><path id="SvgjsPath1192" d="M0 0L139 0L139 37L0 37Z " stroke="rgba(50,50,50,1)" stroke-width="2" fill-opacity="1" fill="#ffffff"></path><g id="SvgjsG1193"><text id="SvgjsText1194" font-family="微软雅黑" text-anchor="middle" font-size="15px" width="60" fill="#323232" font-weight="700" align="middle" font-style="" opacity="1" y="6.75" transform="rotate(0)"><tspan id="SvgjsTspan1195" dy="18" x="70"><tspan id="SvgjsTspan1196" style="text-decoration:;">方法信息</tspan></tspan></text></g></g><g id="SvgjsG1197" transform="translate(610.5,346)"><path id="SvgjsPath1198" d="M0 0L139 0L139 244.5L0 244.5Z " stroke="rgba(50,50,50,1)" stroke-width="2" fill-opacity="1" fill="#ffffff"></path><g id="SvgjsG1199"><text id="SvgjsText1200" font-family="微软雅黑" text-anchor="middle" font-size="13px" width="0" fill="#323232" font-weight="400" align="middle" font-style="" opacity="1" y="112.3" transform="rotate(0)"></text></g></g><g id="SvgjsG1201" transform="translate(600,301.5)"><path id="SvgjsPath1202" d="M0 0L160 0L160 40L0 40Z " stroke="none" fill="none"></path><g id="SvgjsG1203"><text id="SvgjsText1204" font-family="微软雅黑" text-anchor="middle" font-size="13px" width="35" fill="#323232" font-weight="700" align="middle" font-style="" opacity="1" y="10.05" transform="rotate(0)"><tspan id="SvgjsTspan1205" dy="16" x="80.5"><tspan id="SvgjsTspan1206" style="text-decoration:;">······</tspan></tspan></text></g></g><g id="SvgjsG1207" transform="translate(610.5,346)"><path id="SvgjsPath1208" d="M0 0L139 0L139 37L0 37Z " stroke="rgba(50,50,50,1)" stroke-width="2" fill-opacity="1" fill="#ffffff"></path><g id="SvgjsG1209"><text id="SvgjsText1210" font-family="微软雅黑" text-anchor="middle" font-size="13px" width="78" fill="#323232" font-weight="700" align="middle" font-style="" opacity="1" y="8.55" transform="rotate(0)"><tspan id="SvgjsTspan1211" dy="16" x="70"><tspan id="SvgjsTspan1212" style="text-decoration:;">运行时常量池</tspan></tspan></text></g></g><g id="SvgjsG1213" transform="translate(610.5,383)"><path id="SvgjsPath1214" d="M0 0L139 0L139 27.5L0 27.5Z " stroke="rgba(50,50,50,1)" stroke-width="2" fill-opacity="1" fill="#ffffff"></path><g id="SvgjsG1215"><text id="SvgjsText1216" font-family="微软雅黑" text-anchor="middle" font-size="13px" width="106" fill="#323232" font-weight="700" align="middle" font-style="" opacity="1" y="3.8" transform="rotate(0)"><tspan id="SvgjsTspan1217" dy="16" x="70"><tspan id="SvgjsTspan1218" style="text-decoration:;">string constants</tspan></tspan></text></g></g><g id="SvgjsG1219" transform="translate(610.5,536.5)"><path id="SvgjsPath1220" d="M0 0L139 0L139 27.5L0 27.5Z " stroke="rgba(50,50,50,1)" stroke-width="2" fill-opacity="1" fill="#ffffff"></path><g id="SvgjsG1221"><text id="SvgjsText1222" font-family="微软雅黑" text-anchor="middle" font-size="13px" width="104" fill="#323232" font-weight="700" align="middle" font-style="" opacity="1" y="3.8" transform="rotate(0)"><tspan id="SvgjsTspan1223" dy="16" x="70"><tspan id="SvgjsTspan1224" style="text-decoration:;">name and types</tspan></tspan></text></g></g><g id="SvgjsG1225" transform="translate(610.5,493)"><path id="SvgjsPath1226" d="M0 0L139 0L139 43.5L0 43.5Z " stroke="rgba(50,50,50,1)" stroke-width="2" fill-opacity="1" fill="#66ff66"></path><g id="SvgjsG1227"><text id="SvgjsText1228" font-family="微软雅黑" text-anchor="middle" font-size="13px" width="68" fill="#323232" font-weight="700" align="middle" font-style="" opacity="1" y="3.8" transform="rotate(0)"><tspan id="SvgjsTspan1229" dy="16" x="70"><tspan id="SvgjsTspan1230" style="text-decoration:;">method </tspan></tspan><tspan id="SvgjsTspan1231" dy="16" x="70"><tspan id="SvgjsTspan1232" style="text-decoration:;">references</tspan></tspan></text></g></g><g id="SvgjsG1233" transform="translate(610.5,465.5)"><path id="SvgjsPath1234" d="M0 0L139 0L139 27.5L0 27.5Z " stroke="rgba(50,50,50,1)" stroke-width="2" fill-opacity="1" fill="#ffffff"></path><g id="SvgjsG1235"><text id="SvgjsText1236" font-family="微软雅黑" text-anchor="middle" font-size="13px" width="101" fill="#323232" font-weight="700" align="middle" font-style="" opacity="1" y="3.8" transform="rotate(0)"><tspan id="SvgjsTspan1237" dy="16" x="70"><tspan id="SvgjsTspan1238" style="text-decoration:;">field references</tspan></tspan></text></g></g><g id="SvgjsG1239" transform="translate(610.5,438)"><path id="SvgjsPath1240" d="M0 0L139 0L139 27.5L0 27.5Z " stroke="rgba(50,50,50,1)" stroke-width="2" fill-opacity="1" fill="#ffffff"></path><g id="SvgjsG1241"><text id="SvgjsText1242" font-family="微软雅黑" text-anchor="middle" font-size="13px" width="103" fill="#323232" font-weight="700" align="middle" font-style="" opacity="1" y="3.8" transform="rotate(0)"><tspan id="SvgjsTspan1243" dy="16" x="70"><tspan id="SvgjsTspan1244" style="text-decoration:;">class references</tspan></tspan></text></g></g><g id="SvgjsG1245" transform="translate(610.5,410.5)"><path id="SvgjsPath1246" d="M0 0L139 0L139 27.5L0 27.5Z " stroke="rgba(50,50,50,1)" stroke-width="2" fill-opacity="1" fill="#ffffff"></path><g id="SvgjsG1247"><text id="SvgjsText1248" font-family="微软雅黑" text-anchor="middle" font-size="13px" width="114" fill="#323232" font-weight="700" align="middle" font-style="" opacity="1" y="3.8" transform="rotate(0)"><tspan id="SvgjsTspan1249" dy="16" x="70"><tspan id="SvgjsTspan1250" style="text-decoration:;">numberic constat</tspan></tspan></text></g></g><g id="SvgjsG1251"><path id="SvgjsPath1252" d="M480 521L545.25 521L545.25 514.75L610.5 514.75 " stroke="#323232" stroke-width="2" fill="none" marker-end="url(#SvgjsMarker1253)"></path></g><g id="SvgjsG1255" transform="translate(818,124)"><path id="SvgjsPath1256" d="M0 0L215 0L215 481L0 481Z " stroke="rgba(50,50,50,1)" stroke-width="2" fill-opacity="1" fill="#ffffff"></path><g id="SvgjsG1257"><text id="SvgjsText1258" font-family="微软雅黑" text-anchor="middle" font-size="13px" width="0" fill="#323232" font-weight="400" align="middle" font-style="" opacity="1" y="230.55" transform="rotate(0)"></text></g></g><g id="SvgjsG1259" transform="translate(818,124)"><path id="SvgjsPath1260" d="M0 0L215 0L215 111L0 111Z " stroke="rgba(50,50,50,1)" stroke-width="2" fill-opacity="1" fill="#ffffff"></path><g id="SvgjsG1261"><text id="SvgjsText1262" font-family="微软雅黑" text-anchor="middle" font-size="16px" width="64" fill="#323232" font-weight="700" align="middle" font-style="" opacity="1" y="43.1" transform="rotate(0)"><tspan id="SvgjsTspan1263" dy="20" x="108"><tspan id="SvgjsTspan1264" style="text-decoration:;">伊甸园区</tspan></tspan></text></g></g><g id="SvgjsG1265" transform="translate(818,235)"><path id="SvgjsPath1266" d="M0 0L108.5 0L108.5 70L0 70Z " stroke="rgba(50,50,50,1)" stroke-width="2" fill-opacity="1" fill="#ffffff"></path><g id="SvgjsG1267"><text id="SvgjsText1268" font-family="微软雅黑" text-anchor="middle" font-size="13px" width="60" fill="#323232" font-weight="700" align="middle" font-style="" opacity="1" y="25.05" transform="rotate(0)"><tspan id="SvgjsTspan1269" dy="16" x="55"><tspan id="SvgjsTspan1270" style="text-decoration:;">幸存者0区</tspan></tspan></text></g></g><g id="SvgjsG1271" transform="translate(926.5,235)"><path id="SvgjsPath1272" d="M0 0L106.5 0L106.5 70L0 70Z " stroke="rgba(50,50,50,1)" stroke-width="2" fill-opacity="1" fill="#ffffff"></path><g id="SvgjsG1273"><text id="SvgjsText1274" font-family="微软雅黑" text-anchor="middle" font-size="13px" width="60" fill="#323232" font-weight="700" align="middle" font-style="" opacity="1" y="25.05" transform="rotate(0)"><tspan id="SvgjsTspan1275" dy="16" x="54"><tspan id="SvgjsTspan1276" style="text-decoration:;">幸存者1区</tspan></tspan></text></g></g><g id="SvgjsG1277" transform="translate(915,365)"><path id="SvgjsPath1278" d="M0 0L21 0L21 128L0 128Z " stroke="none" fill="none"></path><g id="SvgjsG1279"><text id="SvgjsText1280" font-family="微软雅黑" text-anchor="middle" font-size="17px" width="17" fill="#323232" font-weight="700" align="middle" font-style="" opacity="1" y="29.95" transform="rotate(0)"><tspan id="SvgjsTspan1281" dy="21" x="11"><tspan id="SvgjsTspan1282" style="text-decoration:;">老</tspan></tspan><tspan id="SvgjsTspan1283" dy="21" x="11"><tspan id="SvgjsTspan1284" style="text-decoration:;">年</tspan></tspan><tspan id="SvgjsTspan1285" dy="21" x="11"><tspan id="SvgjsTspan1286" style="text-decoration:;">代</tspan></tspan></text></g></g><g id="SvgjsG1287" transform="translate(600,68)"><path id="SvgjsPath1288" d="M0 0L160 0L160 40L0 40Z " stroke="none" fill="none"></path><g id="SvgjsG1289"><text id="SvgjsText1290" font-family="微软雅黑" text-anchor="middle" font-size="15px" width="100" fill="#323232" font-weight="700" align="middle" font-style="" opacity="1" y="8.25" transform="rotate(0)"><tspan id="SvgjsTspan1291" dy="18" x="80.5"><tspan id="SvgjsTspan1292" style="text-decoration:;">Method Area</tspan></tspan></text></g></g><g id="SvgjsG1293" transform="translate(845.5,68)"><path id="SvgjsPath1294" d="M0 0L160 0L160 40L0 40Z " stroke="none" fill="none"></path><g id="SvgjsG1295"><text id="SvgjsText1296" font-family="微软雅黑" text-anchor="middle" font-size="13px" width="35" fill="#323232" font-weight="700" align="middle" font-style="" opacity="1" y="10.05" transform="rotate(0)"><tspan id="SvgjsTspan1297" dy="16" x="80.5"><tspan id="SvgjsTspan1298" style="text-decoration:;">Heap</tspan></tspan></text></g></g><g id="SvgjsG1299" transform="translate(600,559)"><path id="SvgjsPath1300" d="M0 0L160 0L160 40L0 40Z " stroke="none" fill="none"></path><g id="SvgjsG1301"><text id="SvgjsText1302" font-family="微软雅黑" text-anchor="middle" font-size="13px" width="23" fill="#323232" font-weight="700" align="middle" font-style="" opacity="1" y="10.05" transform="rotate(0)"><tspan id="SvgjsTspan1303" dy="16" x="80.5"><tspan id="SvgjsTspan1304" style="text-decoration:;">····</tspan></tspan></text></g></g></svg>